<svg xmlns="http://www.w3.org/2000/svg" width="181" height="62" viewBox="0 0 181 62"><defs><style>.a{fill:#a3a3a3;}.b{fill:#fff;}.c{fill:#a8a8a8;}.d{fill:#a9a9a9;}</style></defs><g transform="translate(-610 -839)"><rect class="a" width="62" height="62" rx="13" transform="translate(610 839)"/><circle class="b" cx="6" cy="6" r="6" transform="translate(618 848)"/><rect class="b" width="10" height="31" transform="translate(619 862)"/><path class="b" d="M633.387,791v30.343h10.587V802.071s.641-3.974,4.133-4.133,4.133,4.133,4.133,4.133v19.272H662.76V797.937A11.442,11.442,0,0,0,652.241,791c-7.858,0-8.266,4.861-8.266,4.861V791Z" transform="translate(-1 71)"/><rect class="c" width="62" height="62" rx="13" transform="translate(729 839)"/><path class="b" d="M6,0H37a6,6,0,0,1,6,6V23a6,6,0,0,1-6,6H6a6,6,0,0,1-6-6V6A6,6,0,0,1,6,0Z" transform="translate(738 856)"/><path class="d" d="M6,0l6,10H0Z" transform="translate(765 865) rotate(90)"/></g></svg>